<svg width="24" height="24" viewBox="0 0 24 24" fill="none" xmlns="http://www.w3.org/2000/svg">
<path d="M3.42041 6C3.42041 5.80109 3.49627 5.61032 3.63129 5.46967C3.76632 5.32902 3.94945 5.25 4.14041 5.25H19.5004C19.6914 5.25 19.8745 5.32902 20.0095 5.46967C20.1446 5.61032 20.2204 5.80109 20.2204 6C20.2204 6.19891 20.1446 6.38968 20.0095 6.53033C19.8745 6.67098 19.6914 6.75 19.5004 6.75H4.14041C3.94945 6.75 3.76632 6.67098 3.63129 6.53033C3.49627 6.38968 3.42041 6.19891 3.42041 6ZM3.42041 18C3.42041 17.8011 3.49627 17.6103 3.63129 17.4697C3.76632 17.329 3.94945 17.25 4.14041 17.25H19.5004C19.6914 17.25 19.8745 17.329 20.0095 17.4697C20.1446 17.6103 20.2204 17.8011 20.2204 18C20.2204 18.1989 20.1446 18.3897 20.0095 18.5303C19.8745 18.671 19.6914 18.75 19.5004 18.75H4.14041C3.94945 18.75 3.76632 18.671 3.63129 18.5303C3.49627 18.3897 3.42041 18.1989 3.42041 18ZM4.14041 11.25C3.94945 11.25 3.76632 11.329 3.63129 11.4697C3.49627 11.6103 3.42041 11.8011 3.42041 12C3.42041 12.1989 3.49627 12.3897 3.63129 12.5303C3.76632 12.671 3.94945 12.75 4.14041 12.75H19.5004C19.6914 12.75 19.8745 12.671 20.0095 12.5303C20.1446 12.3897 20.2204 12.1989 20.2204 12C20.2204 11.8011 20.1446 11.6103 20.0095 11.4697C19.8745 11.329 19.6914 11.25 19.5004 11.25H4.14041Z" fill="#53738E"/>
</svg>
